<?xml version="1.0" encoding="UTF-8"?>
<svg version="1.1" xmlns="http://www.w3.org/2000/svg" width="96" height="96">
<path d="M0 0 C3.12678007 3.12678007 3.32496835 3.7546076 3.6875 8.25 C3.4957485 19.12753987 -1.39891868 28.46250335 -8.625 36.375 C-18.79046745 45.44468737 -29.84096787 48.37451753 -43.1796875 47.81640625 C-53.92492676 46.99179298 -63.18113178 42.06743324 -70.625 34.375 C-77.33169223 25.90605782 -81.46833076 16.50051372 -81.0234375 5.56640625 C-80.625 3.375 -80.625 3.375 -78.75 0.5 C-72.06261944 -4.04741878 -64.54247152 -6.27945475 -56.625 -7.625 C-55.97660156 -7.73714844 -55.32820313 -7.84929688 -54.66015625 -7.96484375 C-38.17575406 -10.27455845 -13.56034302 -10.84187803 0 0 Z " fill="#00B541" transform="translate(86.625,41.625)"/>
<path d="M0 0 C1 1.91015625 1 1.91015625 1 4 C-4.43469644 11.06380208 -14.86800678 12.58248666 -23.23046875 13.68359375 C-38.60352964 14.97397503 -61.23828884 16.42797232 -74 6 C-75 4.08984375 -75 4.08984375 -75 2 C-69.56530356 -5.06380208 -59.13199322 -6.58248666 -50.76953125 -7.68359375 C-35.39647036 -8.97397503 -12.76171116 -10.42797232 0 0 Z " fill="#007529" transform="translate(85,45)"/>
</svg>
