<svg width="36" height="58" viewBox="0 0 36 58" fill="none" xmlns="http://www.w3.org/2000/svg">
<path d="M36 39.3448C36 49.2858 27.941 57.3448 18 57.3448C8.06 57.3448 0 49.2858 0 39.3448C0 29.4048 8.06 21.3448 18 21.3448C27.941 21.3448 36 29.4048 36 39.3448Z" fill="#FFCC4D"/>
<ellipse cx="4.89492" cy="39.3448" rx="1.89492" ry="2.58145" fill="#664500"/>
<ellipse cx="19.1836" cy="39.6808" rx="2.42923" ry="2.75134" fill="#664500"/>
<path d="M7.99998 51.3449C6.99997 49.8449 8.05641 46.4441 11.6924 46.7517C15.3284 47.0594 19.5 49.8449 18.5 51.8449C17.5 53.8449 15 51.8449 12.5 51.8449C9.99996 51.8449 8.99998 52.8448 7.99998 51.3449Z" fill="#664500" stroke="#664500"/>
<path d="M26.1336 2.64603L32.474 28.4846C32.474 28.4846 28.6794 29.4045 20.3973 27.4925C12.1152 25.5804 9.10791 23.0901 9.10791 23.0901L26.1336 2.64603Z" fill="#3B88C3"/>
<mask id="mask0_21_2" style="mask-type:alpha" maskUnits="userSpaceOnUse" x="9" y="2" width="24" height="27">
<path d="M26.1336 2.64603L32.474 28.4846C32.474 28.4846 28.6794 29.4045 20.3973 27.4925C12.1152 25.5804 9.10791 23.0901 9.10791 23.0901L26.1336 2.64603Z" fill="#3B88C3"/>
</mask>
<g mask="url(#mask0_21_2)">
<path d="M30.0405 3.54798C26.4047 10.4059 20.1085 11.0049 13.8876 9.05552M33.5627 10.519C29.8143 17.864 18.8446 18.9139 11.5017 15.9773M35.6646 18.4961C30.23 27.06 17.127 25.4746 8.33598 22.9464" stroke="#6EB7EE" stroke-width="4"/>
</g>
<path d="M32.474 28.4846C32.474 28.4846 28.6794 29.4045 20.3973 27.4924C12.1152 25.5804 9.10791 23.0901 9.10791 23.0901" stroke="#A6D8FF" stroke-width="3.5" stroke-linecap="round"/>
<circle cx="26.0305" cy="3.13534" r="2.5" transform="rotate(13 26.0305 3.13534)" fill="#A6D8FF"/>
<path d="M4.50012 21.3448C5.32855 21.3448 6.00012 22.0164 6.00012 22.8448C6.00012 23.6733 5.32855 24.3448 4.50012 24.3448C3.67169 24.3448 3.00012 23.6733 3.00012 22.8448C3.00012 22.0164 3.6717 21.3448 4.50012 21.3448Z" fill="#55ACEE"/>
<path d="M33.0001 52.3448C34.1047 52.3448 35.0001 53.2403 35.0001 54.3448C35.0001 55.4494 34.1047 56.3448 33.0001 56.3448C31.8956 56.3448 31.0001 55.4494 31.0001 54.3448C31.0001 53.2403 31.8956 52.3448 33.0001 52.3448Z" fill="#55ACEE"/>
<path d="M26.1214 56.2946L29.657 54.1733L26.1214 52.052L26.1214 56.2946Z" fill="#EA596E"/>
<path d="M0.111161 27.9115L3.82302 32.731L4.30043 26.3448L0.111161 27.9115Z" fill="#EA596E"/>
<path d="M36.0012 50.3448L32.0002 45.3438L35.0002 43.3448L36.0012 50.3448Z" fill="#77B255"/>
</svg>
