<svg width="36" height="36" viewBox="0 0 36 36" fill="none" xmlns="http://www.w3.org/2000/svg">
<mask id="mask0_2751_55" style="mask-type:alpha" maskUnits="userSpaceOnUse" x="0" y="1" width="36" height="34">
<path d="M13.594 26.527C13.297 26.032 13.31 25.41 13.629 24.928L18.024 18.282L12.029 13.143C11.473 12.667 11.343 11.86 11.719 11.232L16.023 4.06C14.354 2.759 12.268 1.97 9.988 1.97C4.538 1.97 0.119995 6.387 0.119995 11.838C0.119995 12.61 0.217995 13.358 0.385995 14.079C1.756 22.593 11.221 31.574 18.005 34.04C18.03 34.031 18.057 34.018 18.082 34.008L13.594 26.527Z" fill="#DD2E44"/>
<path d="M26.023 1.972C23.258 1.972 20.775 3.123 18.986 4.955L14.944 11.692L20.983 16.868C21.557 17.36 21.674 18.203 21.257 18.834L16.653 25.796L20.814 32.731C27.152 29.202 34.435 21.468 35.623 14.082C35.793 13.361 35.891 12.613 35.891 11.841C35.89 6.389 31.472 1.972 26.023 1.972Z" fill="#DD2E44"/>
</mask>
<g mask="url(#mask0_2751_55)">
<rect width="36" height="36" fill="#FFCC4D"/>
<ellipse cx="6.89492" cy="14.5815" rx="1.89492" ry="2.58145" fill="#664500"/>
<ellipse cx="21.1836" cy="14.9174" rx="2.42923" ry="2.75134" fill="#664500"/>
<path d="M9.99998 26.5815C8.99997 25.0815 10.0564 21.6807 13.6924 21.9883C17.3284 22.296 21.5 25.0815 20.5 27.0815C19.5 29.0815 17 27.0815 14.5 27.0815C12 27.0815 11 28.0814 9.99998 26.5815Z" fill="#664500" stroke="#664500"/>
</g>
</svg>
