<svg width="37" height="37" viewBox="0 0 37 37" fill="none" xmlns="http://www.w3.org/2000/svg">
<g clip-path="url(#clip0_0_400)">
<mask id="mask0_0_400" style="mask-type:alpha" maskUnits="userSpaceOnUse" x="0" y="0" width="37" height="37">
<path fill-rule="evenodd" clip-rule="evenodd" d="M24.1809 1.50718C28.201 -0.326292 31.0089 -0.371534 35.371 0.750887C35.7534 0.849307 36.04 1.16948 36.0933 1.56081C36.7008 6.02415 36.3257 9.52129 34.9681 12.3966C35.6363 14.2793 36 16.3061 36 18.4178C36 28.3588 27.941 36.4178 18 36.4178C8.06 36.4178 0 28.3588 0 18.4178C0 16.0127 0.471863 13.7177 1.32805 11.6203C0.436962 9.21358 0.270482 5.11123 1.31627 1.50768C1.42184 1.14391 1.73671 0.882541 2.11257 0.83564C5.10897 0.461732 8.08397 0.518855 10.7234 1.94959C12.9485 0.964791 15.4104 0.417755 18 0.417755C20.1716 0.417755 22.2534 0.802372 24.1809 1.50718Z" fill="#FFEFDE"/>
</mask>
<g mask="url(#mask0_0_400)">
<rect width="37.9066" height="37" fill="#FEBD80"/>
</g>
<path d="M4.89453 16.3363C5.22046 16.3363 5.5582 16.515 5.83203 16.8881C6.1056 17.2607 6.28996 17.7999 6.29004 18.4174C6.29004 19.035 6.10566 19.5749 5.83203 19.9476C5.55822 20.3206 5.22042 20.4994 4.89453 20.4994C4.56879 20.4992 4.2317 20.3204 3.95801 19.9476C3.68438 19.5749 3.5 19.035 3.5 18.4174C3.50008 17.7999 3.68444 17.2607 3.95801 16.8881C4.23172 16.5152 4.56875 16.3364 4.89453 16.3363Z" fill="#713C27" stroke="#713C27"/>
<path d="M19.184 16.5024C20.1925 16.5027 21.1126 17.45 21.1127 18.7534C21.1127 20.0569 20.1926 21.005 19.184 21.0053C18.1752 21.0053 17.2543 20.0571 17.2543 18.7534C17.2545 17.4498 18.1753 16.5024 19.184 16.5024Z" fill="#713C27" stroke="#713C27"/>
<path d="M7.48502 26.9178C6.66744 25.6681 7.98369 23.1615 10.9564 23.4178C13.9291 23.6741 15.985 26.1772 15.485 27.4178C14.985 28.6583 13.029 27.4178 10.985 27.4178C8.94109 27.4178 8.30259 28.1674 7.48502 26.9178Z" fill="#713C27" stroke="#713C27"/>
<path d="M28.5216 2.5853L27.2197 6.01424L29.5 10.4178L33 9.41776L31.5 7.91776L33 3.89113L29.5 5.39113L28.5216 2.5853Z" fill="#FFEEE1"/>
<path fill-rule="evenodd" clip-rule="evenodd" d="M7.54004 3.76785L7 2.41776L6 3.91776L3.5 3.41776L4 5.91776L2.5 6.91776L3.75138 7.41831C4.82875 6.02483 6.10596 4.79368 7.54004 3.76785Z" fill="#FFEEE1"/>
<mask id="mask1_0_400" style="mask-type:alpha" maskUnits="userSpaceOnUse" x="10" y="30" width="3" height="7">
<path d="M12.4841 36.8053L10.4841 35.9889V31.6686L12.4841 30.8053V36.8053Z" fill="#D9D9D9"/>
</mask>
<g mask="url(#mask1_0_400)">
<path d="M10.4842 31.1803C10.6861 31.1804 10.9672 31.3518 11.2206 31.8532C11.4632 32.3334 11.6248 33.023 11.6248 33.8053C11.6248 34.5876 11.4632 35.2772 11.2206 35.7575C10.9672 36.2589 10.6861 36.4302 10.4842 36.4303C10.2823 36.4303 10.0003 36.2591 9.74692 35.7575C9.50436 35.2772 9.3436 34.5875 9.3436 33.8053C9.3436 33.0231 9.50436 32.3334 9.74692 31.8532C10.0003 31.3516 10.2823 31.1803 10.4842 31.1803Z" stroke="#EAEAEA" stroke-width="0.75"/>
</g>
<path d="M14.0928 31.927L15.5 32.0677C16.0523 32.0677 16.3 32.999 16.3 34.5177C16.3 36.0365 16.0523 36.9677 15.5 36.9677L14 36.8177C14.5523 36.8177 14.8 35.8865 14.8 34.3677C14.8 32.9368 14.5801 32.0274 14.0928 31.927L14 31.9177C14.0319 31.9177 14.0629 31.9209 14.0928 31.927Z" fill="#750013"/>
<path d="M5.58855 34.6978L3.99551 33.4832" stroke="#EAEAEA" stroke-width="0.5" stroke-linecap="round" stroke-linejoin="round"/>
<path d="M3 28.4178C4.5 30.9178 12.6 32.4178 18 32.4178C23.4 32.4178 31.5 30.9178 33 28.4178V32.4178C31.5 34.9178 23.4 36.4178 18 36.4178C12.6 36.4178 4.5 34.9178 3 32.4178V28.4178Z" fill="#FF0008"/>
<path d="M3 28.4178C4.5 30.9178 12.6 32.4178 18 32.4178C23.4 32.4178 31.5 30.9178 33 28.4178V32.4178C31.5 34.9178 23.4 36.4178 18 36.4178C12.6 36.4178 4.5 34.9178 3 32.4178V28.4178Z" fill="#DB000F"/>
<path d="M3 28.4178C4.5 30.9178 12.6 32.8178 18 32.8178L20.376 34.4017C20.6728 34.5996 20.6728 35.0359 20.376 35.2338L18 36.8178C12.6 36.8178 4.5 34.9178 3 32.4178V28.4178Z" fill="#C00003"/>
<path d="M3 28.4178C4.5 30.9178 12.6 32.8178 18 32.8178L20.376 34.4017C20.6728 34.5996 20.6728 35.0359 20.376 35.2338L18 36.8178C12.6 36.8178 4.5 34.9178 3 32.4178V28.4178Z" fill="#FF0008"/>
<ellipse cx="11.4033" cy="34.1434" rx="0.425481" ry="0.53891" fill="#B81306"/>
<ellipse cx="7.97497" cy="33.267" rx="0.338099" ry="0.4879" fill="#B81306"/>
<ellipse cx="4.78875" cy="31.9735" rx="0.21459" ry="0.489548" fill="#B81306"/>
<path d="M14 36.8177C13.4477 36.8177 13.2 35.8865 13.2 34.3677C13.2 32.849 13.4477 31.9177 14 31.9177L15.5 32.0677C14.9477 32.0677 14.7 32.999 14.7 34.5177C14.7 35.9487 14.9199 36.8581 15.4072 36.9585L15.5 36.9677C15.4681 36.9677 15.4371 36.9646 15.4072 36.9585L14 36.8177Z" fill="#A00013"/>
<path fill-rule="evenodd" clip-rule="evenodd" d="M11.307 36.3249L10.5597 36.0198C10.5368 36.0359 10.5193 36.0446 10.5079 36.0492C10.493 36.0553 10.4862 36.0553 10.4841 36.0553C10.4819 36.0553 10.4751 36.0553 10.4602 36.0492C10.444 36.0427 10.4151 36.0276 10.3757 35.9945C10.2933 35.9256 10.1872 35.797 10.0819 35.5885C9.87093 35.1708 9.7186 34.5415 9.7186 33.8053C9.7186 33.0692 9.87093 32.4398 10.0819 32.0222C10.1872 31.8137 10.2933 31.6851 10.3757 31.6161C10.4151 31.5831 10.444 31.568 10.4602 31.5614C10.4751 31.5554 10.4819 31.5553 10.4841 31.5553C10.4862 31.5553 10.493 31.5554 10.5079 31.5614C10.5242 31.568 10.553 31.5831 10.5925 31.6161C10.594 31.6174 10.5954 31.6186 10.5969 31.6199L11.323 31.3065C11.0828 30.9899 10.7943 30.8053 10.4841 30.8053C9.6471 30.8053 8.9686 32.1485 8.9686 33.8053C8.9686 35.4622 9.6471 36.8053 10.4841 36.8053C10.7875 36.8053 11.0701 36.6288 11.307 36.3249Z" fill="#EAEAEA"/>
<path d="M3.98894 29.167L5.58855 30.074V34.699" stroke="#EAEAEA" stroke-width="0.5" stroke-linecap="round" stroke-linejoin="round"/>
<path d="M5.7331 32.5218L4.36586 31.678" stroke="#D2D2D2" stroke-width="0.5" stroke-linecap="round" stroke-linejoin="round"/>
<path fill-rule="evenodd" clip-rule="evenodd" d="M4.78874 31.2626H3.98894V32.6688H4.78874V32.4631C4.67023 32.4631 4.57416 32.2439 4.57416 31.9735C4.57416 31.7032 4.67023 31.484 4.78874 31.484V31.2626Z" fill="#FF0008"/>
</g>
<defs>
<clipPath id="clip0_0_400">
<rect width="37" height="37" fill="white"/>
</clipPath>
</defs>
</svg>
