<svg width="37" height="37" viewBox="0 0 37 37" fill="none" xmlns="http://www.w3.org/2000/svg">
<path d="M1.31627 1.50768C0.0451763 5.88758 0.564961 11.0044 2 12.9178L11.5 2.41776C8.67505 0.534466 5.40674 0.424575 2.11257 0.83564C1.73671 0.882541 1.42184 1.14391 1.31627 1.50768Z" fill="#FFCC4D"/>
<path d="M2.5 6.91776L5 7.91776L8 4.91776L7 2.41776L6 3.91776L3.5 3.41776L4 5.91776L2.5 6.91776Z" fill="white"/>
<path d="M36 18.4178C36 28.3588 27.941 36.4178 18 36.4178C8.06 36.4178 0 28.3588 0 18.4178C0 8.47776 8.06 0.417755 18 0.417755C27.941 0.417755 36 8.47776 36 18.4178Z" fill="#FFCC4D"/>
<ellipse cx="4.89492" cy="18.4178" rx="1.89492" ry="2.58145" fill="#664500"/>
<ellipse cx="19.1836" cy="18.7537" rx="2.42923" ry="2.75134" fill="#664500"/>
<path d="M8.00001 30.4178C7 28.9178 8.05644 25.517 11.6924 25.8246C15.3284 26.1323 19.5 28.9178 18.5 30.9178C17.5 32.9178 15 30.9178 12.5 30.9178C9.99999 30.9178 9.00001 31.9177 8.00001 30.4178Z" fill="#664500" stroke="#664500"/>
<path d="M35.371 0.750887C30.2635 -0.563344 27.2867 -0.27673 22 2.60691L33 15.4178C35.9 12.0344 36.9311 7.7165 36.0933 1.56081C36.04 1.16948 35.7534 0.849307 35.371 0.750887Z" fill="#FFCC4D"/>
<path d="M27 2.89112L25.6981 6.32007L29.1981 10.3201L33 9.41776L30.5 7.91776L33 3.89112L28.5 5.39112L27 2.89112Z" fill="white"/>
</svg>
