<svg width="37" height="35" viewBox="0 0 37 35" fill="none" xmlns="http://www.w3.org/2000/svg">
<path d="M12.4258 34.8779L7.64844 27.3935L0 20.542L12.4258 34.8779Z" fill="#AA7417"/>
<path d="M12.4258 34.8779L28.3477 32.2568L7.64844 27.3935L12.4258 34.8779Z" fill="#C38E26"/>
<path d="M7.64844 27.3935L28.3477 32.2568L25.4141 12.2529L7.64844 27.3935Z" fill="#EEBB42"/>
<path d="M5.42188 5.63573L7.64844 27.3935L25.4141 12.2529L5.42188 5.63573Z" fill="#FFCC4D"/>
<path d="M0 20.542L7.64844 27.3935L5.42188 5.63573L0 20.542Z" fill="#E0AB3A"/>
<path d="M25.4141 12.2529L28.3477 32.2568L36.2461 15.1084L25.4141 12.2529Z" fill="#D6A132"/>
<path d="M23.466 3.74669e-06L25.4141 12.2529L36.2461 15.1084L23.466 3.74669e-06Z" fill="#C48E26"/>
<path d="M23.466 3.74669e-06L5.42188 5.63573L25.4141 12.2529L23.466 3.74669e-06Z" fill="#EEBB42"/>
<mask id="mask0_27_6" style="mask-type:alpha" maskUnits="userSpaceOnUse" x="5" y="5" width="21" height="23">
<path d="M5.42188 5.63573L7.64844 27.3935L25.4141 12.2529L5.42188 5.63573Z" fill="#FFCC4D"/>
</mask>
<g mask="url(#mask0_27_6)">
<path d="M9.36198 17.9439C9.36198 19.1836 8.62431 20.1885 7.71435 20.1885C6.80438 20.1885 6.06671 19.1836 6.06671 17.9439C6.06671 16.7043 6.80438 15.6994 7.71435 15.6994C8.62431 15.6994 9.36198 16.7043 9.36198 17.9439Z" fill="#664500"/>
<path d="M22.2506 18.2361C22.2506 19.5573 21.3049 20.6283 20.1383 20.6283C18.9718 20.6283 18.0261 19.5573 18.0261 18.2361C18.0261 16.9148 18.9718 15.8438 20.1383 15.8438C21.3049 15.8438 22.2506 16.9148 22.2506 18.2361Z" fill="#664500"/>
<path d="M13.6612 23.9511C15.325 24.0919 17.0963 24.7946 18.3492 25.6935C18.975 26.1426 19.5002 26.6607 19.8097 27.2118C20.1232 27.7701 20.2339 28.4045 19.9328 29.0068C19.6617 29.5491 19.2602 29.8581 18.7636 29.9706C18.302 30.075 17.7991 29.9997 17.3252 29.8882C17.0829 29.8312 16.8324 29.7608 16.5839 29.6895C16.3324 29.6174 16.0822 29.5443 15.8273 29.4781C15.3171 29.3456 14.8155 29.2471 14.3269 29.2471C13.8133 29.2471 13.3747 29.2991 12.9861 29.3584C12.615 29.415 12.2359 29.4885 11.9205 29.5171C11.5902 29.5471 11.2484 29.5386 10.9151 29.3957C10.5775 29.251 10.3008 28.9914 10.0524 28.6188C9.50508 27.7975 9.55248 26.5484 10.1339 25.5696C10.7384 24.5522 11.921 23.804 13.6612 23.9511Z" fill="#664500"/>
</g>
<mask id="mask1_27_6" style="mask-type:alpha" maskUnits="userSpaceOnUse" x="7" y="12" width="22" height="21">
<path d="M7.64844 27.3935L28.3477 32.2568L25.4141 12.2529L7.64844 27.3935Z" fill="#EEBB42"/>
</mask>
<g mask="url(#mask1_27_6)">
<path d="M9.36198 17.9439C9.36198 19.1836 8.62431 20.1885 7.71435 20.1885C6.80438 20.1885 6.06671 19.1836 6.06671 17.9439C6.06671 16.7043 6.80438 15.6994 7.71435 15.6994C8.62431 15.6994 9.36198 16.7043 9.36198 17.9439Z" fill="#593D00"/>
<path d="M22.2506 18.2361C22.2506 19.5573 21.3049 20.6283 20.1383 20.6283C18.9718 20.6283 18.0261 19.5573 18.0261 18.2361C18.0261 16.9148 18.9718 15.8438 20.1383 15.8438C21.3049 15.8438 22.2506 16.9148 22.2506 18.2361Z" fill="#593D00"/>
<path d="M13.6612 23.9511C15.325 24.0919 17.0963 24.7946 18.3492 25.6935C18.975 26.1426 19.5002 26.6607 19.8097 27.2118C20.1232 27.7701 20.2339 28.4045 19.9328 29.0068C19.6617 29.5491 19.2602 29.8581 18.7636 29.9706C18.302 30.075 17.7991 29.9997 17.3252 29.8882C17.0829 29.8312 16.8324 29.7608 16.5839 29.6895C16.3324 29.6174 16.0822 29.5443 15.8273 29.4781C15.3171 29.3456 14.8155 29.2471 14.3269 29.2471C13.8133 29.2471 13.3747 29.2991 12.9861 29.3584C12.615 29.415 12.2359 29.4885 11.9205 29.5171C11.5902 29.5471 11.2484 29.5386 10.9151 29.3957C10.5775 29.251 10.3008 28.9914 10.0524 28.6188C9.50508 27.7975 9.55248 26.5484 10.1339 25.5696C10.7384 24.5522 11.921 23.804 13.6612 23.9511Z" fill="#593D00"/>
</g>
<mask id="mask2_27_6" style="mask-type:alpha" maskUnits="userSpaceOnUse" x="7" y="27" width="22" height="8">
<path d="M12.4258 34.8779L28.3477 32.2568L7.64844 27.3935L12.4258 34.8779Z" fill="#C38E26"/>
</mask>
<g mask="url(#mask2_27_6)">
<path d="M9.36198 17.9439C9.36198 19.1836 8.62431 20.1885 7.71435 20.1885C6.80438 20.1885 6.06671 19.1836 6.06671 17.9439C6.06671 16.7043 6.80438 15.6994 7.71435 15.6994C8.62431 15.6994 9.36198 16.7043 9.36198 17.9439Z" fill="#4F3400"/>
<path d="M22.2506 18.2361C22.2506 19.5573 21.3049 20.6283 20.1383 20.6283C18.9718 20.6283 18.0261 19.5573 18.0261 18.2361C18.0261 16.9148 18.9718 15.8438 20.1383 15.8438C21.3049 15.8438 22.2506 16.9148 22.2506 18.2361Z" fill="#4F3400"/>
<path d="M13.6612 23.9511C15.325 24.0919 17.0963 24.7946 18.3492 25.6935C18.975 26.1426 19.5002 26.6607 19.8097 27.2118C20.1232 27.7701 20.2339 28.4045 19.9328 29.0068C19.6617 29.5491 19.2602 29.8581 18.7636 29.9706C18.302 30.075 17.7991 29.9997 17.3252 29.8882C17.0829 29.8312 16.8324 29.7608 16.5839 29.6895C16.3324 29.6174 16.0822 29.5443 15.8273 29.4781C15.3171 29.3456 14.8155 29.2471 14.3269 29.2471C13.8133 29.2471 13.3747 29.2991 12.9861 29.3584C12.615 29.415 12.2359 29.4885 11.9205 29.5171C11.5902 29.5471 11.2484 29.5386 10.9151 29.3957C10.5775 29.251 10.3008 28.9914 10.0524 28.6188C9.50508 27.7975 9.55248 26.5484 10.1339 25.5696C10.7384 24.5522 11.921 23.804 13.6612 23.9511Z" fill="#4F3400"/>
</g>
<mask id="mask3_27_6" style="mask-type:alpha" maskUnits="userSpaceOnUse" x="0" y="5" width="8" height="23">
<path d="M0 20.542L7.64844 27.3935L5.42188 5.63573L0 20.542Z" fill="#E0AB3A"/>
</mask>
<g mask="url(#mask3_27_6)">
<path d="M9.36198 17.9439C9.36198 19.1836 8.62431 20.1885 7.71435 20.1885C6.80438 20.1885 6.06671 19.1836 6.06671 17.9439C6.06671 16.7043 6.80438 15.6994 7.71435 15.6994C8.62431 15.6994 9.36198 16.7043 9.36198 17.9439Z" fill="#533701"/>
<path d="M22.2506 18.2361C22.2506 19.5573 21.3049 20.6283 20.1383 20.6283C18.9718 20.6283 18.0261 19.5573 18.0261 18.2361C18.0261 16.9148 18.9718 15.8438 20.1383 15.8438C21.3049 15.8438 22.2506 16.9148 22.2506 18.2361Z" fill="#533701"/>
<path d="M13.6612 23.9511C15.325 24.0919 17.0963 24.7946 18.3492 25.6935C18.975 26.1426 19.5002 26.6607 19.8097 27.2118C20.1232 27.7701 20.2339 28.4045 19.9328 29.0068C19.6617 29.5491 19.2602 29.8581 18.7636 29.9706C18.302 30.075 17.7991 29.9997 17.3252 29.8882C17.0829 29.8312 16.8324 29.7608 16.5839 29.6895C16.3324 29.6174 16.0822 29.5443 15.8273 29.4781C15.3171 29.3456 14.8155 29.2471 14.3269 29.2471C13.8133 29.2471 13.3747 29.2991 12.9861 29.3584C12.615 29.415 12.2359 29.4885 11.9205 29.5171C11.5902 29.5471 11.2484 29.5386 10.9151 29.3957C10.5775 29.251 10.3008 28.9914 10.0524 28.6188C9.50508 27.7975 9.55248 26.5484 10.1339 25.5696C10.7384 24.5522 11.921 23.804 13.6612 23.9511Z" fill="#533701"/>
</g>
</svg>
