<svg width="119" height="73" viewBox="0 0 119 73" fill="none" xmlns="http://www.w3.org/2000/svg">
<g clip-path="url(#clip0_18_253)">
<path d="M119 39C119 48.941 110.941 57 101 57C91.0599 57 82.9999 48.941 82.9999 39C82.9999 29.06 91.0599 21 101 21C110.941 21 119 29.06 119 39Z" fill="#FFCC4D"/>
<ellipse cx="87.8948" cy="39" rx="1.89492" ry="2.58145" fill="#664500"/>
<ellipse cx="102.183" cy="39.336" rx="2.42923" ry="2.75134" fill="#664500"/>
<path d="M90.9999 51C89.9999 49.5 91.0563 46.0993 94.6923 46.4069C98.3283 46.7145 102.5 49.5 101.5 51.5C100.5 53.5 97.9998 51.5 95.4998 51.5C92.9998 51.5 91.9999 52.5 90.9999 51Z" fill="#664500" stroke="#664500"/>
<path d="M109.133 2.30116L115.474 28.1397C115.474 28.1397 111.679 29.0597 103.397 27.1476C95.115 25.2355 92.1078 22.7452 92.1078 22.7452L109.133 2.30116Z" fill="#3B88C3"/>
<mask id="mask0_18_253" style="mask-type:alpha" maskUnits="userSpaceOnUse" x="92" y="2" width="24" height="27">
<path d="M109.133 2.30116L115.474 28.1397C115.474 28.1397 111.679 29.0597 103.397 27.1476C95.115 25.2355 92.1078 22.7452 92.1078 22.7452L109.133 2.30116Z" fill="#3B88C3"/>
</mask>
<g mask="url(#mask0_18_253)">
<path d="M113.04 3.20313C109.405 10.061 103.108 10.66 96.8875 8.71067M116.563 10.1741C112.814 17.5192 101.845 18.5691 94.5016 15.6325M118.665 18.1513C113.23 26.7151 100.127 25.1298 91.3359 22.6016" stroke="#6EB7EE" stroke-width="4"/>
</g>
<path d="M115.474 28.1397C115.474 28.1397 111.679 29.0597 103.397 27.1476C95.115 25.2355 92.1078 22.7452 92.1078 22.7452" stroke="#A6D8FF" stroke-width="3.5" stroke-linecap="round"/>
<circle cx="109.03" cy="2.79048" r="2.5" transform="rotate(13 109.03 2.79048)" fill="#A6D8FF"/>
<path d="M52 73C54.2 73 56 71.2 56 69V52H26V69C26 71.2 27.8 73 30 73H52Z" fill="#FDD888"/>
<path d="M26 50.5C26 49.6716 26.6716 49 27.5 49H54.5C55.3284 49 56 49.6716 56 50.5V52.5C56 53.3284 55.3284 54 54.5 54H27.5C26.6716 54 26 53.3284 26 52.5V50.5Z" fill="#FCAB40"/>
<path d="M39 45C40.1 45 40.263 44.484 39.361 43.853L32.639 39.147C31.737 38.516 30.554 38.781 30.008 39.736L27.992 43.264C27.446 44.219 27.9 45 29 45H39ZM43 45C41.9 45 41.737 44.484 42.639 43.853L49.362 39.147C50.263 38.516 51.447 38.781 51.993 39.736L54.009 43.263C54.554 44.219 54.1 45 53 45H43Z" fill="#DA2F47"/>
<g clip-path="url(#clip1_18_253)">
<mask id="mask1_18_253" style="mask-type:alpha" maskUnits="userSpaceOnUse" x="27" y="29" width="27" height="27">
<path d="M36.3539 30.0995C33.4207 28.7618 31.3716 28.729 28.1887 29.548C27.9097 29.6198 27.7002 29.8533 27.6613 30.1387C27.218 33.3956 27.4931 35.9472 28.4837 38.0453C27.9959 39.4194 27.7297 40.8987 27.7297 42.44C27.7298 49.6942 33.6107 55.5751 40.8649 55.5751C48.1183 55.5751 53.9999 49.6942 54 42.44C54 40.6851 53.6548 39.0106 53.0301 37.4802C53.6806 35.7241 53.8026 32.7302 53.0394 30.1003C52.9624 29.8349 52.7328 29.6443 52.4586 29.61C50.2719 29.3371 48.1008 29.3789 46.1747 30.4231C44.5509 29.7044 42.7546 29.305 40.8649 29.305C39.2801 29.305 37.7607 29.5851 36.3539 30.0995Z" fill="#FFEFDE"/>
</mask>
<g mask="url(#mask1_18_253)">
<path d="M54 29H26.3385V56H54V29Z" fill="#FFEFDE"/>
<path d="M43.4029 35.1778C45.5101 39.5134 50.0441 44.2886 54.8777 41.758C58.3987 39.8633 58.9644 31.9936 56.5804 27.5633C54.1964 23.133 49.4094 21.0775 45.8883 22.9722C42.3673 24.8669 41.2036 30.653 43.4029 35.1778Z" fill="#EF772D"/>
<path d="M23.7438 34.5809C23.7438 39.3734 26.9302 43.6226 32.0509 43.6226C37.1716 43.6226 43.1163 38.1163 43.0978 32.7368C43.1582 26.9291 38.8662 25.9033 33.7454 25.9033C28.6247 25.9033 23.7438 29.7884 23.7438 34.5809Z" fill="#262422"/>
</g>
<path d="M49.0452 42.44C49.0452 43.4803 49.6643 44.3237 50.428 44.3237C51.1917 44.3237 51.8108 43.4803 51.8108 42.44C51.8108 41.3996 51.1917 40.5562 50.428 40.5562C49.6643 40.5562 49.0452 41.3996 49.0452 42.44Z" fill="#65351E"/>
<path d="M49.7749 42.4396C49.775 42.0586 49.8895 41.7427 50.0386 41.5396C50.188 41.3361 50.3345 41.2859 50.4284 41.2859C50.5222 41.286 50.6682 41.3364 50.8174 41.5396C50.9665 41.7427 51.081 42.0586 51.0811 42.4396C51.0811 42.8208 50.9665 43.1372 50.8174 43.3403C50.6683 43.5435 50.5222 43.5939 50.4284 43.594V44.3237L50.5695 44.3138C51.2667 44.2173 51.8108 43.4149 51.8108 42.4396C51.8107 41.3995 51.1918 40.5564 50.4284 40.5562C49.6648 40.5562 49.0453 41.3994 49.0452 42.4396L49.0524 42.6327C49.1232 43.5825 49.7125 44.3237 50.4284 44.3237V43.594C50.3346 43.594 50.1879 43.5437 50.0386 43.3403C49.8895 43.1372 49.7749 42.8208 49.7749 42.4396Z" fill="#65351E"/>
<path d="M38.2285 42.6851C38.2285 43.794 39.0222 44.6929 40.0012 44.6929C40.9802 44.6929 41.7739 43.794 41.7739 42.6851C41.7739 41.5763 40.9802 40.6774 40.0012 40.6774C39.0222 40.6774 38.2285 41.5763 38.2285 42.6851Z" fill="#65351E"/>
<path d="M38.9583 42.6849C38.9584 41.8913 39.5077 41.4073 40.0008 41.4071C40.4941 41.4071 41.044 41.8912 41.0441 42.6849C41.0441 43.4787 40.4941 43.9633 40.0008 43.9633V44.693L40.1826 44.6824C41.0764 44.5795 41.7739 43.7243 41.7739 42.6849C41.7737 41.5761 40.9798 40.6774 40.0008 40.6774L39.8198 40.6881C38.9261 40.791 38.2287 41.6455 38.2285 42.6849C38.2285 43.7936 39.022 44.6928 40.0008 44.693V43.9633C39.5077 43.9631 38.9583 43.4786 38.9583 42.6849Z" fill="#65351E"/>
<path d="M48.5379 48.6427C49.1345 47.7308 48.174 45.9016 46.0048 46.0886C43.8355 46.2757 42.3352 48.1023 42.7001 49.0076C43.065 49.9128 44.4924 49.0076 45.9839 49.0076C47.4754 49.0076 47.9413 49.5546 48.5379 48.6427Z" fill="#65351E"/>
<path d="M48.5936 46.7259C48.076 46.0767 47.1716 45.6221 45.9733 45.7254C44.796 45.827 43.8008 46.3717 43.1456 47.0188C42.8181 47.3423 42.5651 47.7016 42.4194 48.0578C42.2761 48.4086 42.222 48.7972 42.3617 49.1439C42.502 49.492 42.765 49.6817 43.0843 49.7468C43.3689 49.8047 43.6905 49.7627 43.9886 49.7054C44.6327 49.5816 45.2844 49.3726 45.984 49.3726C46.3337 49.3726 46.6244 49.4046 46.8776 49.4403C47.1173 49.4741 47.3666 49.519 47.5746 49.5315C47.7973 49.545 48.0316 49.5277 48.263 49.4097C48.491 49.2933 48.6745 49.1001 48.8431 48.8424C49.2545 48.2135 49.0939 47.3536 48.5936 46.7259ZM46.036 46.4523C47.0068 46.3686 47.6677 46.7349 48.0235 47.1813C48.3964 47.6493 48.4174 48.1597 48.2323 48.4427C48.1026 48.6409 48.0045 48.7215 47.9309 48.7591C47.8605 48.7949 47.7733 48.8118 47.6188 48.8025C47.4494 48.7923 47.2651 48.758 46.9795 48.7177C46.7073 48.6794 46.38 48.6429 45.984 48.6429C45.1922 48.6429 44.384 48.886 43.8504 48.9885C43.5599 49.0443 43.3627 49.0589 43.2304 49.032C43.133 49.0122 43.0808 48.9754 43.0387 48.8709C42.9961 48.765 42.992 48.5857 43.095 48.3336C43.1959 48.087 43.3856 47.808 43.6587 47.5383C44.2047 46.9992 45.0443 46.5378 46.036 46.4523Z" fill="#65351E"/>
<path d="M33.1869 30.8866L34.137 33.3888L32.473 36.6021L29.9189 35.8724L31.0135 34.7778L29.9189 31.8395L32.473 32.9341L33.1869 30.8866Z" fill="white"/>
<path d="M48.4978 31.7492C49.5443 32.4978 50.4758 33.3968 51.2621 34.4137L52.1757 34.0481L51.0811 33.3184L51.4459 31.494L49.6216 31.8589L48.8919 30.7643L48.4978 31.7492Z" fill="white"/>
<mask id="mask2_18_253" style="mask-type:alpha" maskUnits="userSpaceOnUse" x="44" y="51" width="3" height="5">
<path d="M44.8901 55.8579L46.3495 55.2622V52.1095L44.8901 51.4796V55.8579Z" fill="#D9D9D9"/>
</mask>
<g mask="url(#mask2_18_253)">
<path d="M45.7907 53.6687C45.7907 53.1316 45.9019 52.6722 46.0558 52.3675C46.1327 52.2153 46.2102 52.1213 46.2703 52.071C46.2991 52.0469 46.3204 52.0359 46.3323 52.0311C46.3428 52.0269 46.3477 52.0269 46.3494 52.0269C46.3509 52.0269 46.3563 52.0267 46.3672 52.0311C46.3791 52.036 46.3999 52.0472 46.4285 52.071C46.4886 52.1213 46.5661 52.2153 46.643 52.3675C46.7969 52.6722 46.9081 53.1315 46.9081 53.6687C46.9081 54.2059 46.7969 54.6652 46.643 54.97C46.5661 55.1221 46.4886 55.2162 46.4285 55.2665C46.3999 55.2903 46.3791 55.3015 46.3672 55.3064C46.3563 55.3108 46.3509 55.3106 46.3494 55.3106V55.8579L46.4064 55.8551C46.9907 55.7965 47.4554 54.84 47.4554 53.6687C47.4554 52.4597 46.9602 51.4796 46.3494 51.4796L46.2924 51.4824C45.7082 51.5412 45.2434 52.4976 45.2434 53.6687L45.2491 53.8925C45.3057 54.9964 45.7768 55.8578 46.3494 55.8579V55.3106C46.3477 55.3106 46.3428 55.3106 46.3323 55.3064C46.3204 55.3015 46.2991 55.2905 46.2703 55.2665C46.2102 55.2161 46.1327 55.1222 46.0558 54.97C45.9019 54.6652 45.7907 54.2059 45.7907 53.6687Z" fill="#EAEAEA"/>
</g>
<path d="M43.7161 52.2981L42.6892 52.4008C42.2862 52.4008 42.1054 53.0803 42.1054 54.1886C42.1054 55.2969 42.2862 55.9765 42.6892 55.9765L43.7838 55.867C43.3808 55.867 43.2 55.1875 43.2 54.0792C43.2 53.035 43.3605 52.3714 43.7161 52.2981L43.7838 52.2913C43.7605 52.2913 43.7379 52.2936 43.7161 52.2981Z" fill="#750013"/>
<path d="M51.2298 53.3232C51.1687 53.2431 51.054 53.2274 50.9739 53.2883L49.8116 54.1748C49.7315 54.2359 49.7157 54.3505 49.7767 54.4306C49.8378 54.5107 49.9524 54.5259 50.0325 54.4648L51.1948 53.579C51.2749 53.518 51.2906 53.4033 51.2298 53.3232Z" fill="#EAEAEA"/>
<path d="M51.8108 49.7373C50.7162 51.5616 44.8054 52.6562 40.8648 52.6562C36.9243 52.6562 31.0135 51.5616 29.9189 49.7373V52.6562C31.0135 54.4805 36.9243 55.5751 40.8648 55.5751C44.8054 55.5751 50.7162 54.4805 51.8108 52.6562V49.7373Z" fill="#FF0008"/>
<path d="M51.8108 49.7373C50.7162 51.5616 44.8054 52.6562 40.8648 52.6562C36.9243 52.6562 31.0135 51.5616 29.9189 49.7373V52.6562C31.0135 54.4805 36.9243 55.5751 40.8648 55.5751C44.8054 55.5751 50.7162 54.4805 51.8108 52.6562V49.7373Z" fill="#DB000F"/>
<path d="M51.8108 49.7373C50.7162 51.5616 44.8054 52.9481 40.8648 52.9481L39.131 54.104C38.9144 54.2484 38.9144 54.5667 39.131 54.7111L40.8648 55.867C44.8054 55.867 50.7162 54.4805 51.8108 52.6562V49.7373Z" fill="#C00003"/>
<path d="M51.8108 49.7373C50.7162 51.5616 44.8054 52.9481 40.8648 52.9481L39.131 54.104C38.9144 54.2484 38.9144 54.5667 39.131 54.7111L40.8648 55.867C44.8054 55.867 50.7162 54.4805 51.8108 52.6562V49.7373Z" fill="#FF0008"/>
<path d="M45.3682 53.9155C45.3682 54.1327 45.5072 54.3087 45.6786 54.3087C45.8501 54.3087 45.9891 54.1327 45.9891 53.9155C45.9891 53.6983 45.8501 53.5222 45.6786 53.5222C45.5072 53.5222 45.3682 53.6983 45.3682 53.9155Z" fill="#B81306"/>
<path d="M47.9337 53.2759C47.9337 53.4726 48.0441 53.632 48.1804 53.632C48.3167 53.632 48.4271 53.4726 48.4271 53.2759C48.4271 53.0793 48.3167 52.9199 48.1804 52.9199C48.0441 52.9199 47.9337 53.0793 47.9337 53.2759Z" fill="#B81306"/>
<path d="M50.3489 52.332C50.3489 52.5293 50.419 52.6893 50.5055 52.6893C50.592 52.6893 50.6621 52.5293 50.6621 52.332C50.6621 52.1347 50.592 51.9748 50.5055 51.9748C50.419 51.9748 50.3489 52.1347 50.3489 52.332Z" fill="#B81306"/>
<path d="M43.7838 55.867C44.1868 55.867 44.3676 55.1875 44.3676 54.0792C44.3676 52.9709 44.1868 52.2913 43.7838 52.2913L42.6892 52.4008C43.0922 52.4008 43.273 53.0803 43.273 54.1886C43.273 55.2328 43.1125 55.8964 42.7569 55.9697L42.6892 55.9765C42.7125 55.9765 42.735 55.9742 42.7569 55.9697L43.7838 55.867Z" fill="#A00013"/>
<path d="M46.2923 51.4824C46.0879 51.503 45.8997 51.6347 45.7393 51.8458L46.2674 52.0739C46.2684 52.073 46.2692 52.0719 46.2702 52.071C46.299 52.0469 46.3203 52.0359 46.3322 52.0311C46.3427 52.0269 46.3477 52.0269 46.3493 52.0269C46.3509 52.0269 46.3563 52.0267 46.3671 52.0311C46.379 52.036 46.3999 52.0472 46.4284 52.071C46.4885 52.1213 46.5661 52.2153 46.6429 52.3675C46.7969 52.6722 46.908 53.1315 46.908 53.6687C46.908 54.2059 46.7969 54.6652 46.6429 54.97C46.5661 55.1221 46.4885 55.2162 46.4284 55.2665C46.3999 55.2903 46.379 55.3015 46.3671 55.3064C46.3563 55.3108 46.3509 55.3106 46.3493 55.3106C46.3477 55.3106 46.3427 55.3106 46.3322 55.3064C46.3242 55.3031 46.3134 55.2946 46.2973 55.2836L45.75 55.5066C45.9229 55.7283 46.128 55.8579 46.3493 55.8579L46.4063 55.8551C46.9907 55.7965 47.4553 54.84 47.4553 53.6687C47.4553 52.4597 46.9601 51.4796 46.3493 51.4796L46.2923 51.4824Z" fill="#EAEAEA"/>
<path d="M50.1043 54.321V51.0515L51.1789 50.4429C51.2665 50.3932 51.2975 50.2818 51.248 50.1942C51.1984 50.1066 51.0869 50.0756 50.9993 50.1251L49.8321 50.7871C49.7749 50.8195 49.7394 50.8803 49.7394 50.946V54.321C49.7395 54.4217 49.8211 54.5034 49.9218 54.5034C50.0226 54.5034 50.1042 54.4217 50.1043 54.321Z" fill="#EAEAEA"/>
<path d="M50.9694 52.0209C50.9166 51.9352 50.8043 51.9083 50.7186 51.961L49.7202 52.5767C49.6346 52.6297 49.6082 52.7426 49.661 52.8283C49.714 52.9138 49.8263 52.9401 49.9119 52.8874L50.9096 52.2717C50.9952 52.2189 51.0221 52.1066 50.9694 52.0209Z" fill="#D2D2D2"/>
<path d="M50.5055 51.975C50.592 51.975 50.6623 52.1347 50.6623 52.332C50.6623 52.5293 50.592 52.689 50.5055 52.689V52.8394H51.0892V51.8132H50.5055V51.975Z" fill="#FF0008"/>
</g>
<path d="M52 73C54.2 73 56 71.2 56 69V54H26V69C26 71.2 27.8 73 30 73H52Z" fill="#FDD888"/>
<path d="M45 73H37V54H45V73Z" fill="#DA2F47"/>
<g clip-path="url(#clip2_18_253)">
<path d="M27.234 46.3782C28.7896 47.9338 28.7896 50.4794 27.234 52.035L7.43502 71.834C5.87938 73.3896 3.3338 73.3896 1.77816 71.834C0.22253 70.2784 0.22253 67.7328 1.77816 66.1772L21.5772 46.3782C23.1328 44.8225 25.6784 44.8225 27.234 46.3782Z" fill="#FDD888"/>
<path d="M9.55635 52.7421L8.14213 54.1564C6.97046 55.328 6.97046 57.2273 8.14213 58.399L14.5061 64.763L20.1629 59.1061L13.799 52.7421C12.628 51.5712 10.728 51.5705 9.55635 52.7421Z" fill="#DA2F47"/>
<path d="M10.2635 57.6919C11.0413 56.9141 10.7917 56.4339 9.70767 56.6256L1.62685 58.0511C0.542854 58.2427 -0.10627 59.2666 0.182937 60.328L1.25208 64.2482C1.54129 65.3095 2.41457 65.5408 3.19238 64.763L10.2635 57.6919ZM13.0919 54.8635C12.3141 55.6413 11.8339 55.3917 12.0256 54.3077L13.4518 46.2262C13.6427 45.1429 14.6673 44.493 15.7287 44.7822L19.6482 45.8507C20.7095 46.1413 20.9408 47.0146 20.1629 47.7924L13.0919 54.8635Z" fill="#DA2F47"/>
</g>
</g>
<defs>
<clipPath id="clip0_18_253">
<rect width="119" height="73" fill="white"/>
</clipPath>
<clipPath id="clip1_18_253">
<rect width="27" height="27" fill="white" transform="matrix(-1 0 0 1 54 29)"/>
</clipPath>
<clipPath id="clip2_18_253">
<rect width="36" height="15" fill="white" transform="translate(-6 64.0558) rotate(-45)"/>
</clipPath>
</defs>
</svg>
