<svg width="36" height="36" viewBox="0 0 36 36" fill="none" xmlns="http://www.w3.org/2000/svg">
<path d="M35.89 11.838C35.89 6.388 31.472 1.97 26.023 1.97C22.715 1.97 19.796 3.603 18.005 6.099C16.214 3.603 13.295 1.97 9.988 1.97C4.538 1.97 0.119995 6.387 0.119995 11.838C0.119995 12.61 0.217995 13.358 0.385995 14.079C1.756 22.592 11.221 31.573 18.005 34.039C24.788 31.573 34.254 22.592 35.622 14.08C35.792 13.359 35.89 12.611 35.89 11.838Z" fill="#FFCC4D"/>
<ellipse cx="6.89492" cy="14.5815" rx="1.89492" ry="2.58145" fill="#664500"/>
<ellipse cx="21.1836" cy="14.9174" rx="2.42923" ry="2.75134" fill="#664500"/>
<path d="M9.99998 26.5815C8.99997 25.0815 10.0564 21.6807 13.6924 21.9883C17.3284 22.296 21.5 25.0815 20.5 27.0815C19.5 29.0815 17 27.0815 14.5 27.0815C12 27.0815 11 28.0814 9.99998 26.5815Z" fill="#664500" stroke="#664500"/>
</svg>
