<svg width="36" height="36" viewBox="0 0 36 36" fill="none" xmlns="http://www.w3.org/2000/svg">
<g clip-path="url(#clip0_15_2)">
<path d="M16 31C24.837 31 32 23.837 32 15H0C0 23.837 7.164 31 16 31Z" fill="#A0041E"/>
<path d="M16 23.917C24.8647 23.917 32.051 19.9247 32.051 15C32.051 10.0753 24.8647 6.08301 16 6.08301C7.13528 6.08301 -0.0509987 10.0753 -0.0509987 15C-0.0509987 19.9247 7.13528 23.917 16 23.917Z" fill="#EA596E"/>
<path d="M16 22.719C24.086 22.719 30.641 19.2631 30.641 15C30.641 10.7369 24.086 7.28101 16 7.28101C7.914 7.28101 1.359 10.7369 1.359 15C1.359 19.2631 7.914 22.719 16 22.719Z" fill="#662113"/>
<path d="M34 8C33 8 30 9 26 12C21.475 15.394 18.404 14.187 18.404 14.187L18.405 14.19C16.981 13.453 15.087 13 13 13C8.582 13 5 15.015 5 17.5C5 19.985 8.582 22 13 22C15.773 22 18.216 21.206 19.651 20C19.651 20 24.646 15.569 27 14C30 12 32 11 34 11C36 11 36 8 34 8Z" fill="#99AAB5"/>
<path d="M13 21.5C15.7614 21.5 18 20.3807 18 19C18 17.6193 15.7614 16.5 13 16.5C10.2386 16.5 8 17.6193 8 19C8 20.3807 10.2386 21.5 13 21.5Z" fill="#CCD6DD"/>
<path d="M16.9189 19.5392C15.785 21.4351 13.3288 22.0528 11.4329 20.9189C9.53717 19.7851 8.91924 17.3288 10.0531 15.4329C11.1869 13.5372 13.6434 12.9194 15.5392 14.0531C17.4351 15.187 18.0527 17.6434 16.9189 19.5392Z" fill="#FFCC4D"/>
<ellipse cx="10.9867" cy="15.9912" rx="0.421093" ry="0.573656" transform="rotate(30.8829 10.9867 15.9912)" fill="#664500"/>
<ellipse cx="13.6734" cy="17.6851" rx="0.53983" ry="0.611409" transform="rotate(30.8829 13.6734 17.6851)" fill="#664500"/>
<path d="M10.2466 18.6015C10.2252 18.1662 10.8665 17.5916 11.5828 18.1067C12.2991 18.6218 12.8191 19.7175 12.3633 20.0084C11.9076 20.2993 11.6371 19.5741 11.1183 19.2638C10.5995 18.9535 10.2679 19.0369 10.2466 18.6015Z" fill="#664500" stroke="#664500" stroke-width="0.2"/>
</g>
<defs>
<clipPath id="clip0_15_2">
<rect width="36" height="36" fill="white"/>
</clipPath>
</defs>
</svg>
