<svg width="36" height="40" viewBox="0 0 36 40" fill="none" xmlns="http://www.w3.org/2000/svg">
<path d="M36 18C36 27.941 27.941 36 18 36C8.06 36 0 27.941 0 18C0 8.06 8.06 0 18 0C27.941 0 36 8.06 36 18Z" fill="#CCD6DD"/>
<ellipse cx="4.89492" cy="18" rx="1.89492" ry="2.58145" fill="#292F33"/>
<ellipse cx="19.1836" cy="18.336" rx="2.42923" ry="2.75134" fill="#292F33"/>
<path d="M3.03272 36.0747L2.65885 27.2501C2.63131 26.6 3.22224 26.0971 3.85962 26.2283L19.6419 29.4777C20.0866 29.5693 20.4138 29.949 20.4387 30.4024L20.8126 37.2135C20.8576 38.0348 20.3997 38.8114 19.6105 39.0432C15.019 40.3921 7.08425 39.7628 3.93178 37.8428C3.32892 37.4756 3.0626 36.78 3.03272 36.0747Z" fill="#CCD6DD"/>
<mask id="mask0_8_7" style="mask-type:alpha" maskUnits="userSpaceOnUse" x="2" y="26" width="19" height="14">
<path d="M3.03272 36.0747L2.65885 27.2501C2.63131 26.6 3.22224 26.0971 3.85962 26.2283L19.6419 29.4777C20.0866 29.5693 20.4138 29.949 20.4387 30.4024L20.8126 37.2135C20.8576 38.0348 20.3997 38.8114 19.6105 39.0432C15.019 40.3921 7.08425 39.7628 3.93178 37.8428C3.32892 37.4756 3.0626 36.78 3.03272 36.0747Z" fill="#CCD6DD"/>
</mask>
<g mask="url(#mask0_8_7)">
<path d="M6.73022 33.7254L6.87568 39.2041M13.0159 34.8475L13.2446 40.4352" stroke="#292F33" stroke-linecap="round"/>
</g>
<path d="M8.18407 26.2492C8.0642 26.4558 8.03165 26.7041 8.09123 26.9378C8.15095 27.1716 8.29793 27.3718 8.50216 27.4957C8.70639 27.6196 8.95181 27.6575 9.18677 27.6024C9.42159 27.5473 9.6267 27.4038 9.75465 27.202C9.79191 27.1432 9.82917 27.0844 9.86644 27.0256C10.1658 26.5531 10.4652 26.0806 10.7646 25.6081L9.22698 25.7395C9.6719 26.2718 10.1168 26.8041 10.5617 27.3363C10.6064 27.3898 10.651 27.4432 10.6957 27.4966C10.8657 27.7002 11.1087 27.826 11.3733 27.8444C11.6378 27.8629 11.9024 27.7725 12.1065 27.595C12.3106 27.4175 12.4368 27.1681 12.4552 26.9036C12.4737 26.639 12.3829 26.3809 12.2049 26.1842C12.1582 26.1326 12.1115 26.081 12.0648 26.0293C11.5994 25.5148 11.1341 25.0003 10.6688 24.4858C10.1919 23.9579 9.48849 24.002 9.1311 24.6171C8.85037 25.1009 8.56963 25.5847 8.28889 26.0685C8.25395 26.1287 8.21901 26.1889 8.18407 26.2492Z" fill="#292F33"/>
</svg>
