<svg width="36" height="36" viewBox="0 0 36 36" fill="none" xmlns="http://www.w3.org/2000/svg">
<path d="M36 18C36 27.941 27.941 36 18 36C8.06 36 0 27.941 0 18C0 8.06 8.06 0 18 0C27.941 0 36 8.06 36 18Z" fill="#FFCC4D"/>
<ellipse cx="4.89492" cy="18" rx="1.89492" ry="2.58145" fill="#664500"/>
<ellipse cx="19.1836" cy="18.336" rx="2.42923" ry="2.75134" fill="#664500"/>
<path d="M8.00001 30C7 28.5 8.05644 25.0993 11.6924 25.4069C15.3284 25.7145 19.5 28.5 18.5 30.5C17.5 32.5 15 30.5 12.5 30.5C9.99999 30.5 9.00001 31.5 8.00001 30Z" fill="#664500" stroke="#664500"/>
</svg>
