<svg width="34" height="34" viewBox="0 0 34 34" fill="none" xmlns="http://www.w3.org/2000/svg">
<g clip-path="url(#clip0_8_38)">
<rect width="5.62294" height="6.80357" transform="matrix(0.94848 0.316838 0 1 1 19.9031)" fill="#FFCC4D"/>
<rect width="5.62294" height="6.80357" transform="matrix(0.94848 0.316838 0 1 6.33325 21.6847)" fill="#FFCC4D"/>
<rect width="5.62294" height="6.80357" transform="matrix(0.94848 0.316838 0 1 11.6665 23.4662)" fill="#FFCC4D"/>
<path d="M5.59189 26.046C4.92918 24.7771 6.34903 23.0775 8.99984 23.963C11.6507 24.8485 13.0705 27.4967 12.4078 28.3228C11.7451 29.149 10.6566 28.0084 8.99984 27.4549C7.34307 26.9015 6.25459 27.3149 5.59189 26.046Z" fill="#664500" stroke="#664500"/>
<rect width="5.62294" height="6.80357" transform="matrix(0.94848 0.316838 0 1 1 13.0995)" fill="#FFCC4D"/>
<ellipse cx="1.47548" cy="1.78811" rx="1.47548" ry="1.78811" transform="matrix(0.94848 0.317357 0 1 2.26837 15.1397)" fill="#664500"/>
<rect width="5.62294" height="6.80357" transform="matrix(0.94848 0.316838 0 1 6.33325 14.8811)" fill="#FFCC4D"/>
<rect width="5.62294" height="6.80357" transform="matrix(0.94848 0.316838 0 1 11.6665 16.6626)" fill="#FFCC4D"/>
<ellipse cx="1.61836" cy="1.96128" rx="1.61836" ry="1.96128" transform="matrix(0.94848 0.317357 0 1 12.7968 18.4843)" fill="#664500"/>
<rect width="5.62294" height="6.80357" transform="matrix(0.94848 0.316838 0 1 1 6.29593)" fill="#FFCC4D"/>
<rect width="5.62294" height="6.80357" transform="matrix(0.94848 0.316838 0 1 6.33325 8.07751)" fill="#FFCC4D"/>
<rect width="5.62294" height="6.80357" transform="matrix(0.94848 0.316838 0 1 11.6665 9.85907)" fill="#FFCC4D"/>
<rect width="5.62294" height="6.80357" rx="1" transform="matrix(0.94848 0.316838 0 1 1 19.9031)" stroke="#855917"/>
<rect width="5.62294" height="6.80357" rx="1" transform="matrix(0.94848 0.316838 0 1 6.33325 21.6847)" stroke="#855917"/>
<rect width="5.62294" height="6.80357" rx="1" transform="matrix(0.94848 0.316838 0 1 11.6665 23.4662)" stroke="#855917"/>
<rect width="5.62294" height="6.80357" rx="1" transform="matrix(0.94848 0.316838 0 1 1 13.0995)" stroke="#855917"/>
<rect width="5.62294" height="6.80357" rx="1" transform="matrix(0.94848 0.316838 0 1 6.33325 14.8811)" stroke="#855917"/>
<rect width="5.62294" height="6.80357" rx="1" transform="matrix(0.94848 0.316838 0 1 11.6665 16.6626)" stroke="#855917"/>
<rect width="5.62294" height="6.80357" rx="1" transform="matrix(0.94848 0.316838 0 1 1 6.29593)" stroke="#855917"/>
<rect width="5.62294" height="6.80357" rx="1" transform="matrix(0.94848 0.316838 0 1 6.33325 8.07751)" stroke="#855917"/>
<rect width="5.62294" height="6.80357" rx="1" transform="matrix(0.94848 0.316838 0 1 11.6665 9.85907)" stroke="#855917"/>
<rect width="5.62294" height="6.80357" transform="matrix(-0.94848 0.316838 0 1 32.9995 19.9031)" fill="#EAA22D"/>
<rect width="5.62294" height="6.80357" transform="matrix(-0.94848 0.316838 0 1 27.6663 21.6847)" fill="#EAA22D"/>
<rect width="5.62294" height="6.80357" transform="matrix(-0.94848 0.316838 0 1 22.333 23.4662)" fill="#EAA22D"/>
<rect width="5.62294" height="6.80357" transform="matrix(-0.94848 0.316838 0 1 32.9995 13.0995)" fill="#EAA22D"/>
<rect width="5.62294" height="6.80357" transform="matrix(-0.94848 0.316838 0 1 27.6663 14.8811)" fill="#EAA22D"/>
<rect width="5.62294" height="6.80357" transform="matrix(-0.94848 0.316838 0 1 22.333 16.6626)" fill="#EAA22D"/>
<rect width="5.62294" height="6.80357" transform="matrix(-0.94848 0.316838 0 1 32.9995 6.29593)" fill="#EAA22D"/>
<rect width="5.62294" height="6.80357" transform="matrix(-0.94848 0.316838 0 1 27.6663 8.07751)" fill="#EAA22D"/>
<rect width="5.62294" height="6.80357" transform="matrix(-0.94848 0.316838 0 1 22.333 9.85907)" fill="#EAA22D"/>
<rect width="5.62294" height="6.80357" rx="1" transform="matrix(-0.94848 0.316838 0 1 32.9995 19.9031)" stroke="#855917"/>
<rect width="5.62294" height="6.80357" rx="1" transform="matrix(-0.94848 0.316838 0 1 27.6663 21.6847)" stroke="#855917"/>
<rect width="5.62294" height="6.80357" rx="1" transform="matrix(-0.94848 0.316838 0 1 22.333 23.4662)" stroke="#855917"/>
<rect width="5.62294" height="6.80357" rx="1" transform="matrix(-0.94848 0.316838 0 1 32.9995 13.0995)" stroke="#855917"/>
<rect width="5.62294" height="6.80357" rx="1" transform="matrix(-0.94848 0.316838 0 1 27.6663 14.8811)" stroke="#855917"/>
<rect width="5.62294" height="6.80357" rx="1" transform="matrix(-0.94848 0.316838 0 1 22.333 16.6626)" stroke="#855917"/>
<rect width="5.62294" height="6.80357" rx="1" transform="matrix(-0.94848 0.316838 0 1 32.9995 6.29593)" stroke="#855917"/>
<rect width="5.62294" height="6.80357" rx="1" transform="matrix(-0.94848 0.316838 0 1 27.6663 8.07751)" stroke="#855917"/>
<rect width="5.62294" height="6.80357" rx="1" transform="matrix(-0.94848 0.316838 0 1 22.333 9.85907)" stroke="#855917"/>
<rect width="5.61644" height="5.61687" transform="matrix(0.94881 0.315846 -0.94881 0.315846 6.34082 4.51953)" fill="#FFE17E"/>
<rect width="5.61644" height="5.61687" transform="matrix(0.94881 0.315846 -0.94881 0.315846 11.6709 6.29385)" fill="#FFE17E"/>
<rect width="5.61644" height="5.61687" transform="matrix(0.94881 0.315846 -0.94881 0.315846 17.001 8.06817)" fill="#FFE17E"/>
<rect width="5.61644" height="5.61687" transform="matrix(0.94881 0.315846 -0.94881 0.315846 11.6702 2.74536)" fill="#FFE17E"/>
<rect width="5.61644" height="5.61687" transform="matrix(0.94881 0.315846 -0.94881 0.315846 17.0002 4.51969)" fill="#FFE17E"/>
<rect width="5.61644" height="5.61687" transform="matrix(0.94881 0.315846 -0.94881 0.315846 22.3303 6.29399)" fill="#FFE17E"/>
<rect width="5.61644" height="5.61687" transform="matrix(0.94881 0.315846 -0.94881 0.315846 16.9996 0.971344)" fill="#FFE17E"/>
<rect width="5.61644" height="5.61687" transform="matrix(0.94881 0.315846 -0.94881 0.315846 22.3298 2.74565)" fill="#FFE17E"/>
<rect width="5.61644" height="5.61687" transform="matrix(0.94881 0.315846 -0.94881 0.315846 27.6599 4.51995)" fill="#FFE17E"/>
<rect width="5.61644" height="5.61687" rx="1" transform="matrix(0.94881 0.315846 -0.94881 0.315846 6.34082 4.51953)" stroke="#855917"/>
<rect width="5.61644" height="5.61687" rx="1" transform="matrix(0.94881 0.315846 -0.94881 0.315846 11.6709 6.29385)" stroke="#855917"/>
<rect width="5.61644" height="5.61687" rx="1" transform="matrix(0.94881 0.315846 -0.94881 0.315846 17.001 8.06818)" stroke="#855917"/>
<rect width="5.61644" height="5.61687" rx="1" transform="matrix(0.94881 0.315846 -0.94881 0.315846 11.6702 2.74536)" stroke="#855917"/>
<rect width="5.61644" height="5.61687" rx="1" transform="matrix(0.94881 0.315846 -0.94881 0.315846 17.0002 4.51968)" stroke="#855917"/>
<rect width="5.61644" height="5.61687" rx="1" transform="matrix(0.94881 0.315846 -0.94881 0.315846 22.3303 6.29398)" stroke="#855917"/>
<rect width="5.61644" height="5.61687" rx="1" transform="matrix(0.94881 0.315846 -0.94881 0.315846 16.9996 0.971344)" stroke="#855917"/>
<rect width="5.61644" height="5.61687" rx="1" transform="matrix(0.94881 0.315846 -0.94881 0.315846 22.3298 2.74567)" stroke="#855917"/>
<rect width="5.61644" height="5.61687" rx="1" transform="matrix(0.94881 0.315846 -0.94881 0.315846 27.6599 4.51996)" stroke="#855917"/>
<path d="M17.6356 32.3326L21.0037 31.2109L17 31.5L13.0037 31.2109L16.3718 32.3326C16.782 32.4692 17.2254 32.4692 17.6356 32.3326Z" fill="#855917"/>
<path d="M33.4795 6.86997L33.4763 11.5156L32.7935 6.73552L30.0779 5.01562L32.7954 5.92049C33.2042 6.05659 33.4798 6.43916 33.4795 6.86997Z" fill="#855917"/>
<path d="M0.520495 6.86997L0.523682 11.5156L1.20654 6.73552L3.92212 5.01562L1.20458 5.92049C0.795836 6.05659 0.520199 6.43916 0.520495 6.86997Z" fill="#855917"/>
</g>
<defs>
<clipPath id="clip0_8_38">
<rect width="34" height="34" fill="white"/>
</clipPath>
</defs>
</svg>
