<svg width="36" height="36" viewBox="0 0 36 36" fill="none" xmlns="http://www.w3.org/2000/svg">
<g clip-path="url(#clip0_2751_123)">
<path d="M35.981 16.67C35.731 21.244 27.787 24.918 18.004 24.918C14.719 24.918 11.652 24.496 9.00398 23.773V27.361C11.654 28.384 14.722 28.98 18.004 28.98C27.945 28.98 36.004 23.607 36.004 16.98C36.004 16.876 35.984 16.773 35.981 16.67ZM27.004 6.598C24.358 5.574 21.287 4.981 18.004 4.981C8.98598 4.981 1.53898 9.407 0.22998 15.175C1.53898 11.104 8.98598 7.98 18.004 7.98C21.287 7.98 24.358 8.398 27.004 9.122V6.598Z" fill="#F4D4AB"/>
<path d="M24.774 19.713C24.774 15.956 21.729 12.912 17.973 12.912C15.693 12.912 13.681 14.037 12.447 15.757C11.213 14.037 9.19999 12.912 6.92099 12.912C3.16499 12.912 0.119995 15.956 0.119995 19.713C0.119995 20.244 0.186995 20.762 0.302995 21.258C1.248 27.125 7.77099 33.317 12.447 35.016C17.122 33.317 23.647 27.125 24.589 21.26C24.706 20.762 24.774 20.244 24.774 19.713ZM35.889 5.691C35.889 3.089 33.78 0.980003 31.178 0.980003C29.599 0.980003 28.205 1.76 27.35 2.952C26.495 1.761 25.101 0.980003 23.523 0.980003C20.921 0.980003 18.812 3.089 18.812 5.691C18.812 6.06 18.859 6.418 18.939 6.761C19.593 10.825 24.112 15.114 27.35 16.29C30.588 15.113 35.108 10.825 35.762 6.762C35.842 6.418 35.889 6.06 35.889 5.691Z" fill="#FFCC4D"/>
<path d="M6.05946 21.4699C6.05946 22.4664 5.46652 23.2741 4.73508 23.2741C4.00365 23.2741 3.41071 22.4664 3.41071 21.4699C3.41071 20.4735 4.00365 19.6657 4.73508 19.6657C5.46652 19.6657 6.05946 20.4735 6.05946 21.4699Z" fill="#664500"/>
<path d="M16.4194 21.7047C16.4194 22.7667 15.6592 23.6277 14.7216 23.6277C13.7839 23.6277 13.0237 22.7667 13.0237 21.7047C13.0237 20.6427 13.7839 19.7818 14.7216 19.7818C15.6592 19.7818 16.4194 20.6427 16.4194 21.7047Z" fill="#664500"/>
<path d="M6.90521 29.8569C6.2063 28.8085 6.94465 26.4317 9.48588 26.6467C12.0271 26.8617 14.9427 28.8085 14.2438 30.2063C13.5448 31.6041 11.7976 30.2063 10.0503 30.2063C8.30301 30.2063 7.60412 30.9052 6.90521 29.8569Z" fill="#664500"/>
<path d="M9.51513 26.2986C10.8525 26.4117 12.2763 26.9765 13.2834 27.6991C13.7864 28.0601 14.2086 28.4765 14.4573 28.9195C14.7094 29.3683 14.7983 29.8782 14.5563 30.3623C14.3383 30.7982 14.0156 31.0466 13.6164 31.137C13.2454 31.221 12.8412 31.1604 12.4602 31.0708C12.2655 31.025 12.0641 30.9684 11.8644 30.9111C11.6622 30.8531 11.4611 30.7944 11.2563 30.7411C10.8462 30.6346 10.443 30.5555 10.0502 30.5555C9.63739 30.5555 9.28482 30.5973 8.97252 30.6449C8.67416 30.6904 8.36949 30.7495 8.11595 30.7725C7.85049 30.7967 7.57574 30.7898 7.30783 30.6749C7.03648 30.5586 6.81404 30.3499 6.61438 30.0504C6.17442 29.3903 6.21253 28.3862 6.67991 27.5995C7.16574 26.7817 8.11637 26.1803 9.51513 26.2986ZM9.45643 26.9947C8.31418 26.8981 7.62515 27.3776 7.28121 27.9564C6.91896 28.5662 6.93723 29.2745 7.1959 29.6627C7.34564 29.8874 7.47282 29.9852 7.58357 30.0327C7.69776 30.0816 7.83832 30.0959 8.05315 30.0764C8.27998 30.0557 8.52165 30.0063 8.86741 29.9535C9.19937 29.9029 9.58954 29.8566 10.0502 29.8566C10.5311 29.8566 11.0016 29.9529 11.4324 30.0648C11.6478 30.1207 11.8592 30.1821 12.0569 30.2388C12.257 30.2962 12.4435 30.3488 12.62 30.3903C12.9815 30.4754 13.2545 30.5022 13.4622 30.4552C13.6418 30.4145 13.7996 30.3128 13.9311 30.0497C14.0383 29.8351 14.0252 29.5773 13.8478 29.2614C13.667 28.9396 13.3319 28.5942 12.8759 28.267C11.9646 27.6131 10.6602 27.0966 9.45643 26.9947Z" fill="#664500"/>
<path d="M22.949 7.07346C22.949 7.76005 22.5405 8.31665 22.0365 8.31665C21.5325 8.31665 21.1239 7.76005 21.1239 7.07346C21.1239 6.38687 21.5325 5.83028 22.0365 5.83028C22.5405 5.83028 22.949 6.38687 22.949 7.07346Z" fill="#664500"/>
<path d="M30.0875 7.23526C30.0875 7.96704 29.5637 8.56027 28.9176 8.56027C28.2715 8.56027 27.7477 7.96704 27.7477 7.23526C27.7477 6.50349 28.2715 5.91026 28.9176 5.91026C29.5637 5.91026 30.0875 6.50349 30.0875 7.23526Z" fill="#664500"/>
<path d="M23.5318 12.8525C23.0502 12.1301 23.559 10.4924 25.31 10.6405C27.061 10.7887 29.07 12.1301 28.5884 13.0933C28.1068 14.0564 26.9029 13.0933 25.6989 13.0933C24.495 13.0933 24.0134 13.5748 23.5318 12.8525Z" fill="#664500"/>
<path d="M25.3302 10.4006C26.2517 10.4786 27.2328 10.8678 27.9267 11.3657C28.2733 11.6144 28.5642 11.9014 28.7356 12.2066C28.9093 12.5158 28.9705 12.8672 28.8038 13.2008C28.6536 13.5011 28.4313 13.6723 28.1562 13.7346C27.9005 13.7924 27.622 13.7507 27.3595 13.689C27.2253 13.6574 27.0866 13.6184 26.9489 13.5789C26.8096 13.539 26.6711 13.4985 26.5299 13.4618C26.2473 13.3884 25.9695 13.3339 25.6989 13.3339C25.4144 13.3339 25.1715 13.3627 24.9563 13.3955C24.7507 13.4269 24.5408 13.4676 24.3661 13.4834C24.1832 13.5001 23.9938 13.4953 23.8092 13.4162C23.6223 13.336 23.469 13.1922 23.3314 12.9859C23.0283 12.531 23.0545 11.8392 23.3766 11.297C23.7113 10.7335 24.3664 10.3191 25.3302 10.4006ZM25.2897 10.8803C24.5027 10.8138 24.0279 11.1442 23.7909 11.543C23.5413 11.9632 23.5539 12.4512 23.7321 12.7187C23.8353 12.8735 23.9229 12.9409 23.9992 12.9736C24.0779 13.0073 24.1748 13.0172 24.3228 13.0037C24.4791 12.9895 24.6456 12.9554 24.8839 12.9191C25.1126 12.8842 25.3814 12.8523 25.6989 12.8523C26.0302 12.8523 26.3544 12.9187 26.6512 12.9957C26.7997 13.0343 26.9453 13.0766 27.0816 13.1157C27.2194 13.1552 27.348 13.1915 27.4696 13.2201C27.7187 13.2787 27.9068 13.2971 28.0499 13.2648C28.1737 13.2367 28.2824 13.1666 28.373 12.9854C28.4469 12.8375 28.4379 12.6599 28.3156 12.4422C28.191 12.2204 27.9602 11.9825 27.6459 11.757C27.018 11.3064 26.1192 10.9505 25.2897 10.8803Z" fill="#664500"/>
</g>
<defs>
<clipPath id="clip0_2751_123">
<rect width="36" height="36" fill="white"/>
</clipPath>
</defs>
</svg>
