<svg width="37" height="37" viewBox="0 0 37 37" fill="none" xmlns="http://www.w3.org/2000/svg">
<g clip-path="url(#clip0_9_2)">
<path d="M37 32.8889C37 35.1593 35.1593 37 32.8889 37H4.11111C1.84075 37 0 35.1593 0 32.8889V4.11111C0 1.84075 1.84075 0 4.11111 0H32.8889C35.1593 0 37 1.84075 37 4.11111V32.8889Z" fill="#3B88C3"/>
<path d="M34.9444 18.5C34.9444 27.5819 27.5819 34.9444 18.5 34.9444C9.41901 34.9444 2.05556 27.5819 2.05556 18.5C2.05556 9.41901 9.41901 2.05556 18.5 2.05556C27.5819 2.05556 34.9444 9.41901 34.9444 18.5Z" fill="white"/>
<ellipse cx="6.52746" cy="18.5" rx="1.73116" ry="2.35836" fill="#808080"/>
<ellipse cx="19.5813" cy="18.8069" rx="2.2193" ry="2.51357" fill="#808080"/>
<path d="M9.80732 29.0062C9.06039 27.8645 10.2629 25.5745 12.9787 25.8087C15.6945 26.0428 17.5728 28.3296 17.116 29.463C16.6592 30.5963 14.8722 29.463 13.0049 29.463C11.1376 29.463 10.5542 30.1478 9.80732 29.0062Z" fill="#808080" stroke="#808080"/>
</g>
<defs>
<clipPath id="clip0_9_2">
<rect width="37" height="37" fill="white"/>
</clipPath>
</defs>
</svg>
